HIERARCHY
ROOT Hips
{
    OFFSET 0 0 0
    CHANNELS 6 Xposition Yposition Zposition Zrotation Xrotation Yrotation

    JOINT Spine
    {
        OFFSET 0 10 0
        CHANNELS 3 Zrotation Xrotation Yrotation

        JOINT Spine1
        {
            OFFSET 0 10 0
            CHANNELS 3 Zrotation Xrotation Yrotation

            JOINT Spine2
            {
                OFFSET 0 10 0
                CHANNELS 3 Zrotation Xrotation Yrotation

                JOINT Neck
                {
                    OFFSET 0 10 0
                    CHANNELS 3 Zrotation Xrotation Yrotation

                    JOINT Head
                    {
                        OFFSET 0 5 0
                        CHANNELS 3 Zrotation Xrotation Yrotation
                    }
                }
            }
        }
    }

    JOINT LeftUpLeg
    {
        OFFSET 5 0 0
        CHANNELS 3 Zrotation Xrotation Yrotation

        JOINT LeftLeg
        {
            OFFSET 0 -20 0
            CHANNELS 3 Zrotation Xrotation Yrotation

            JOINT LeftFoot
            {
                OFFSET 0 -20 5
                CHANNELS 3 Zrotation Xrotation Yrotation
            }
        }
    }

    JOINT RightUpLeg
    {
        OFFSET -5 0 0
        CHANNELS 3 Zrotation Xrotation Yrotation

        JOINT RightLeg
        {
            OFFSET 0 -20 0
            CHANNELS 3 Zrotation Xrotation Yrotation

            JOINT RightFoot
            {
                OFFSET 0 -20 5
                CHANNELS 3 Zrotation Xrotation Yrotation
            }
        }
    }
}

MOTION
Frames: 30
Frame Time: 0.033198
64.605582 -0.000373 -47.332926 0.000000 0.000000 0.000000 179.461541 68.207346 0.000000 1.286071 17.837333 0.000000 0.000000 0.000000 0.000000 -122.429851 73.112178 0.000000 -2.336459 22.628392 0.000000 0.000000 0.000000 0.000000 0.000000 0.000000 0.000000 0.000000 0.000000 0.000000 0.000000 0.000000 0.000000 0.000000 0.000000 0.000000 0.000000 0.000000 0.000000
64.211673 -0.000879 -47.253433 0.000000 0.000000 0.000000 175.795759 68.527955 0.000000 1.120672 18.178748 0.000000 0.000000 0.000000 0.000000 -125.526039 73.969435 0.000000 -2.189216 22.045623 0.000000 0.000000 0.000000 0.000000 0.000000 0.000000 0.000000 0.000000 0.000000 0.000000 0.000000 0.000000 0.000000 0.000000 0.000000 0.000000 0.000000 0.000000 0.000000
63.775733 -0.000782 -47.180390 0.000000 0.000000 0.000000 173.033539 67.905822 0.000000 1.185545 19.265900 0.000000 0.000000 0.000000 0.000000 -129.977467 74.773073 0.000000 -2.164620 22.188166 0.000000 0.000000 0.000000 0.000000 0.000000 0.000000 0.000000 0.000000 0.000000 0.000000 0.000000 0.000000 0.000000 0.000000 0.000000 0.000000 0.000000 0.000000 0.000000
63.266078 -0.000966 -47.120942 0.000000 0.000000 0.000000 169.650495 67.758046 0.000000 1.308186 20.281231 0.000000 0.000000 0.000000 0.000000 -133.976814 75.663201 0.000000 -2.181339 23.810484 0.000000 0.000000 0.000000 0.000000 0.000000 0.000000 0.000000 0.000000 0.000000 0.000000 0.000000 0.000000 0.000000 0.000000 0.000000 0.000000 0.000000 0.000000 0.000000
62.789288 -0.001234 -47.068715 0.000000 0.000000 0.000000 167.955345 67.542360 0.000000 1.432215 20.358222 0.000000 0.000000 0.000000 0.000000 -137.869828 76.072465 0.000000 -1.880378 24.233071 0.000000 0.000000 0.000000 0.000000 0.000000 0.000000 0.000000 0.000000 0.000000 0.000000 0.000000 0.000000 0.000000 0.000000 0.000000 0.000000 0.000000 0.000000 0.000000
62.284356 -0.001441 -47.022387 0.000000 0.000000 0.000000 166.413721 67.380550 0.000000 1.838128 20.871256 0.000000 0.000000 0.000000 0.000000 -143.241814 75.726034 0.000000 -1.572614 24.965411 0.000000 0.000000 0.000000 0.000000 0.000000 0.000000 0.000000 0.000000 0.000000 0.000000 0.000000 0.000000 0.000000 0.000000 0.000000 0.000000 0.000000 0.000000 0.000000
61.711499 -0.001572 -46.966740 0.000000 0.000000 0.000000 163.843422 67.072295 0.000000 2.123088 19.933814 0.000000 0.000000 0.000000 0.000000 -144.385452 75.943452 0.000000 -0.796126 23.670357 0.000000 0.000000 0.000000 0.000000 0.000000 0.000000 0.000000 0.000000 0.000000 0.000000 0.000000 0.000000 0.000000 0.000000 0.000000 0.000000 0.000000 0.000000 0.000000
61.173099 -0.001642 -46.952116 0.000000 0.000000 0.000000 164.579093 65.843469 0.000000 2.611934 19.675333 0.000000 0.000000 0.000000 0.000000 -149.500174 75.722718 0.000000 -0.649869 23.327514 0.000000 0.000000 0.000000 0.000000 0.000000 0.000000 0.000000 0.000000 0.000000 0.000000 0.000000 0.000000 0.000000 0.000000 0.000000 0.000000 0.000000 0.000000 0.000000
60.654199 -0.001480 -46.881275 0.000000 0.000000 0.000000 164.667537 65.886388 0.000000 3.141080 19.380360 0.000000 0.000000 0.000000 0.000000 -152.693790 76.152456 0.000000 -0.436915 22.619079 0.000000 0.000000 0.000000 0.000000 0.000000 0.000000 0.000000 0.000000 0.000000 0.000000 0.000000 0.000000 0.000000 0.000000 0.000000 0.000000 0.000000 0.000000 0.000000
60.034621 -0.001179 -46.854289 0.000000 0.000000 0.000000 162.440129 65.763115 0.000000 3.366812 18.934313 0.000000 0.000000 0.000000 0.000000 -156.647737 76.903945 0.000000 -0.174839 21.848658 0.000000 0.000000 0.000000 0.000000 0.000000 0.000000 0.000000 0.000000 0.000000 0.000000 0.000000 0.000000 0.000000 0.000000 0.000000 0.000000 0.000000 0.000000 0.000000
59.420079 -0.000709 -46.851397 0.000000 0.000000 0.000000 162.080076 64.609981 0.000000 3.834572 18.691304 0.000000 0.000000 0.000000 0.000000 -159.844276 76.888313 0.000000 0.370232 21.777416 0.000000 0.000000 0.000000 0.000000 0.000000 0.000000 0.000000 0.000000 0.000000 0.000000 0.000000 0.000000 0.000000 0.000000 0.000000 0.000000 0.000000 0.000000 0.000000
58.788809 -0.000063 -46.866857 0.000000 0.000000 0.000000 160.096747 63.861068 0.000000 4.184853 18.539420 0.000000 0.000000 0.000000 0.000000 -162.862340 77.025549 0.000000 0.860944 21.801333 0.000000 0.000000 0.000000 0.000000 0.000000 0.000000 0.000000 0.000000 0.000000 0.000000 0.000000 0.000000 0.000000 0.000000 0.000000 0.000000 0.000000 0.000000 0.000000
58.230853 0.000897 -46.906322 0.000000 0.000000 0.000000 159.943400 62.359309 0.000000 4.584746 18.172913 0.000000 0.000000 0.000000 0.000000 -166.754362 76.145673 0.000000 1.237391 21.698681 0.000000 0.000000 0.000000 0.000000 0.000000 0.000000 0.000000 0.000000 0.000000 0.000000 0.000000 0.000000 0.000000 0.000000 0.000000 0.000000 0.000000 0.000000 0.000000
57.668966 0.001747 -46.933208 0.000000 0.000000 0.000000 159.024445 62.278148 0.000000 5.081755 18.154925 0.000000 0.000000 0.000000 0.000000 -170.756027 76.134657 0.000000 1.408584 21.241640 0.000000 0.000000 0.000000 0.000000 0.000000 0.000000 0.000000 0.000000 0.000000 0.000000 0.000000 0.000000 0.000000 0.000000 0.000000 0.000000 0.000000 0.000000 0.000000
57.042813 0.003363 -46.970055 0.000000 0.000000 0.000000 158.277795 61.414147 0.000000 5.581664 18.048839 0.000000 0.000000 0.000000 0.000000 -173.547226 75.649637 0.000000 1.924309 21.052139 0.000000 0.000000 0.000000 0.000000 0.000000 0.000000 0.000000 0.000000 0.000000 0.000000 0.000000 0.000000 0.000000 0.000000 0.000000 0.000000 0.000000 0.000000 0.000000
56.443289 0.003254 -47.000042 0.000000 0.000000 0.000000 158.778048 60.589824 0.000000 6.207238 17.804168 0.000000 0.000000 0.000000 0.000000 -174.626243 75.092135 0.000000 2.555375 20.349114 0.000000 0.000000 0.000000 0.000000 0.000000 0.000000 0.000000 0.000000 0.000000 0.000000 0.000000 0.000000 0.000000 0.000000 0.000000 0.000000 0.000000 0.000000 0.000000
55.827460 0.003286 -47.044517 0.000000 0.000000 0.000000 157.865003 60.093472 0.000000 6.609595 17.680416 0.000000 0.000000 0.000000 0.000000 -178.019295 74.604781 0.000000 3.096763 20.338014 0.000000 0.000000 0.000000 0.000000 0.000000 0.000000 0.000000 0.000000 0.000000 0.000000 0.000000 0.000000 0.000000 0.000000 0.000000 0.000000 0.000000 0.000000 0.000000
55.219796 0.003795 -47.113580 0.000000 0.000000 0.000000 154.755643 59.725748 0.000000 6.471792 17.138585 0.000000 0.000000 0.000000 0.000000 178.682542 74.428183 0.000000 3.531598 20.058182 0.000000 0.000000 0.000000 0.000000 0.000000 0.000000 0.000000 0.000000 0.000000 0.000000 0.000000 0.000000 0.000000 0.000000 0.000000 0.000000 0.000000 0.000000 0.000000
54.647198 0.003957 -47.185144 0.000000 0.000000 0.000000 153.548259 58.239252 0.000000 6.463220 16.952536 0.000000 0.000000 0.000000 0.000000 175.160481 72.981866 0.000000 3.884141 19.844899 0.000000 0.000000 0.000000 0.000000 0.000000 0.000000 0.000000 0.000000 0.000000 0.000000 0.000000 0.000000 0.000000 0.000000 0.000000 0.000000 0.000000 0.000000 0.000000
54.045691 0.003971 -47.250511 0.000000 0.000000 0.000000 150.903570 57.853723 0.000000 6.433707 16.841341 0.000000 0.000000 0.000000 0.000000 173.515996 73.013493 0.000000 4.483733 19.842503 0.000000 0.000000 0.000000 0.000000 0.000000 0.000000 0.000000 0.000000 0.000000 0.000000 0.000000 0.000000 0.000000 0.000000 0.000000 0.000000 0.000000 0.000000 0.000000
53.433311 0.003904 -47.342357 0.000000 0.000000 0.000000 148.010234 57.046778 0.000000 6.302114 16.749241 0.000000 0.000000 0.000000 0.000000 170.282732 72.860395 0.000000 4.818893 19.826158 0.000000 0.000000 0.000000 0.000000 0.000000 0.000000 0.000000 0.000000 0.000000 0.000000 0.000000 0.000000 0.000000 0.000000 0.000000 0.000000 0.000000 0.000000 0.000000
53.013954 0.003776 -47.500633 0.000000 0.000000 0.000000 146.005472 56.383301 0.000000 6.450708 17.299399 0.000000 0.000000 0.000000 0.000000 173.206611 73.041066 0.000000 5.713413 19.804833 0.000000 0.000000 0.000000 0.000000 0.000000 0.000000 0.000000 0.000000 0.000000 0.000000 0.000000 0.000000 0.000000 0.000000 0.000000 0.000000 0.000000 0.000000 0.000000
52.644609 0.002685 -47.662804 0.000000 0.000000 0.000000 144.261628 56.278232 0.000000 6.561850 17.262908 0.000000 0.000000 0.000000 0.000000 170.653178 75.169927 0.000000 5.929776 19.686289 0.000000 0.000000 0.000000 0.000000 0.000000 0.000000 0.000000 0.000000 0.000000 0.000000 0.000000 0.000000 0.000000 0.000000 0.000000 0.000000 0.000000 0.000000 0.000000
52.348791 0.001901 -47.788811 0.000000 0.000000 0.000000 141.940890 57.377744 0.000000 6.810249 17.288125 0.000000 0.000000 0.000000 0.000000 162.514206 78.075032 0.000000 5.738732 19.599848 0.000000 0.000000 0.000000 0.000000 0.000000 0.000000 0.000000 0.000000 0.000000 0.000000 0.000000 0.000000 0.000000 0.000000 0.000000 0.000000 0.000000 0.000000 0.000000
52.138601 0.002205 -47.871961 0.000000 0.000000 0.000000 140.487538 58.076536 0.000000 7.118724 17.291238 0.000000 0.000000 0.000000 0.000000 159.982212 78.776842 0.000000 5.785193 19.558512 0.000000 0.000000 0.000000 0.000000 0.000000 0.000000 0.000000 0.000000 0.000000 0.000000 0.000000 0.000000 0.000000 0.000000 0.000000 0.000000 0.000000 0.000000 0.000000
51.910870 0.004148 -47.887641 0.000000 0.000000 0.000000 139.305048 58.289535 0.000000 7.233610 17.180686 0.000000 0.000000 0.000000 0.000000 158.283473 78.576132 0.000000 5.803853 19.290240 0.000000 0.000000 0.000000 0.000000 0.000000 0.000000 0.000000 0.000000 0.000000 0.000000 0.000000 0.000000 0.000000 0.000000 0.000000 0.000000 0.000000 0.000000 0.000000
51.720817 0.004298 -47.882120 0.000000 0.000000 0.000000 139.483915 57.961758 0.000000 7.430852 17.269247 0.000000 0.000000 0.000000 0.000000 154.710867 78.101544 0.000000 5.768114 19.308583 0.000000 0.000000 0.000000 0.000000 0.000000 0.000000 0.000000 0.000000 0.000000 0.000000 0.000000 0.000000 0.000000 0.000000 0.000000 0.000000 0.000000 0.000000 0.000000
51.561977 0.005082 -47.876348 0.000000 0.000000 0.000000 140.389158 57.787363 0.000000 7.673936 17.135196 0.000000 0.000000 0.000000 0.000000 155.988342 76.483334 0.000000 5.766452 19.159304 0.000000 0.000000 0.000000 0.000000 0.000000 0.000000 0.000000 0.000000 0.000000 0.000000 0.000000 0.000000 0.000000 0.000000 0.000000 0.000000 0.000000 0.000000 0.000000
51.481812 0.005926 -47.865088 0.000000 0.000000 0.000000 140.109362 58.156049 0.000000 7.822254 17.089849 0.000000 0.000000 0.000000 0.000000 156.812762 75.615879 0.000000 5.697348 18.903653 0.000000 0.000000 0.000000 0.000000 0.000000 0.000000 0.000000 0.000000 0.000000 0.000000 0.000000 0.000000 0.000000 0.000000 0.000000 0.000000 0.000000 0.000000 0.000000
51.463597 0.006035 -47.862267 0.000000 0.000000 0.000000 139.993273 58.415415 0.000000 7.889192 17.101124 0.000000 0.000000 0.000000 0.000000 156.536033 75.398622 0.000000 5.676134 18.919812 0.000000 0.000000 0.000000 0.000000 0.000000 0.000000 0.000000 0.000000 0.000000 0.000000 0.000000 0.000000 0.000000 0.000000 0.000000 0.000000 0.000000 0.000000 0.000000
